<svg width="24" height="24" viewBox="0 0 24 24" fill="none" xmlns="http://www.w3.org/2000/svg">
<g clip-path="url(#clip0_146_24)">
<path d="M16.9799 0.000203233C17.9168 -0.0321436 18.8504 0.126742 19.7238 0.467164C20.5972 0.807585 21.3921 1.3224 22.0599 1.9802C22.7037 2.64801 23.2071 3.43809 23.5403 4.30376C23.8735 5.16942 24.0298 6.0931 23.9999 7.0202V16.9802C23.9999 19.0602 23.3199 20.8502 22.0199 22.1102C20.6409 23.3834 18.8159 24.0624 16.9399 24.0002H7.05994C5.1997 24.0578 3.39195 23.3786 2.02994 22.1102C1.35479 21.434 0.826124 20.6259 0.476874 19.7365C0.127625 18.847 -0.0347233 17.8952 -5.68596e-05 16.9402V7.0202C-5.68596e-05 2.8002 2.79994 0.000203233 7.01994 0.000203233H16.9799ZM17.0299 2.2302H7.05994C5.60994 2.2302 4.35994 2.6602 3.52994 3.4802C3.08644 3.95259 2.74273 4.50955 2.51936 5.11779C2.296 5.72603 2.19756 6.37306 2.22994 7.0202V16.9402C2.22994 18.4402 2.65994 19.6402 3.52994 20.5202C4.50026 21.3784 5.76578 21.8265 7.05994 21.7702H16.9399C18.2341 21.8265 19.4996 21.3784 20.4699 20.5202C20.9358 20.0593 21.3008 19.5067 21.5418 18.8973C21.7828 18.2879 21.8945 17.6351 21.8699 16.9802V7.0202C21.9022 5.73287 21.4365 4.48273 20.5699 3.5302C20.0976 3.0867 19.5406 2.74299 18.9324 2.51962C18.3241 2.29626 17.6771 2.19782 17.0299 2.2302ZM11.9999 5.7602C15.3899 5.7602 18.1999 8.5602 18.1999 11.9602C18.1999 13.6045 17.5467 15.1815 16.384 16.3443C15.2213 17.507 13.6443 18.1602 11.9999 18.1602C10.3556 18.1602 8.77861 17.507 7.61588 16.3443C6.45316 15.1815 5.79994 13.6045 5.79994 11.9602C5.79994 10.3159 6.45316 8.73887 7.61588 7.57614C8.77861 6.41342 10.3556 5.7602 11.9999 5.7602ZM11.9999 7.9802C10.9487 7.98546 9.94192 8.40541 9.19854 9.1488C8.45515 9.89218 8.0352 10.8989 8.02994 11.9502C8.0352 13.0015 8.45515 14.0082 9.19854 14.7516C9.94192 15.495 10.9487 15.9149 11.9999 15.9202C13.0512 15.9149 14.058 15.495 14.8013 14.7516C15.5447 14.0082 15.9647 13.0015 15.9699 11.9502C15.9647 10.8989 15.5447 9.89218 14.8013 9.1488C14.058 8.40541 13.0512 7.98546 11.9999 7.9802ZM18.4399 4.2102C18.8112 4.2102 19.1673 4.3577 19.4299 4.62025C19.6924 4.8828 19.8399 5.2389 19.8399 5.6102C19.8399 5.98151 19.6924 6.3376 19.4299 6.60015C19.1673 6.8627 18.8112 7.0102 18.4399 7.0102C18.0686 7.0102 17.7125 6.8627 17.45 6.60015C17.1874 6.3376 17.0399 5.98151 17.0399 5.6102C17.0399 5.2389 17.1874 4.8828 17.45 4.62025C17.7125 4.3577 18.0686 4.2102 18.4399 4.2102Z" fill="white"/>
</g>
<defs>
<clipPath id="clip0_146_24">
<rect width="24" height="24" fill="white"/>
</clipPath>
</defs>
</svg>
