<svg width="42" height="40" viewBox="0 0 42 40" fill="none" xmlns="http://www.w3.org/2000/svg">
<path d="M15.8191 38.2727C16.773 38.2727 17.5463 37.4994 17.5463 36.5454C17.5463 35.5915 16.773 34.8182 15.8191 34.8182C14.8651 34.8182 14.0918 35.5915 14.0918 36.5454C14.0918 37.4994 14.8651 38.2727 15.8191 38.2727Z" stroke="#8061F9" stroke-width="3" stroke-linecap="round" stroke-linejoin="round"/>
<path d="M34.8191 38.2727C35.773 38.2727 36.5463 37.4994 36.5463 36.5454C36.5463 35.5915 35.773 34.8182 34.8191 34.8182C33.8651 34.8182 33.0918 35.5915 33.0918 36.5454C33.0918 37.4994 33.8651 38.2727 34.8191 38.2727Z" stroke="#8061F9" stroke-width="3" stroke-linecap="round" stroke-linejoin="round"/>
<path d="M2 2H8.90909L13.5382 25.1282C13.6961 25.9234 14.1288 26.6377 14.7603 27.1462C15.3919 27.6546 16.1821 27.9246 16.9927 27.9091H33.7818C34.5924 27.9246 35.3827 27.6546 36.0142 27.1462C36.6458 26.6377 37.0784 25.9234 37.2364 25.1282L40 10.6364H10.6364" stroke="#8061F9" stroke-width="3" stroke-linecap="round" stroke-linejoin="round"/>
</svg>
