<svg width="35" height="35" viewBox="0 0 35 35" fill="none" xmlns="http://www.w3.org/2000/svg">
<path d="M27.7083 4.375H7.29167C5.68084 4.375 4.375 5.68084 4.375 7.29167V27.7083C4.375 29.3192 5.68084 30.625 7.29167 30.625H27.7083C29.3192 30.625 30.625 29.3192 30.625 27.7083V7.29167C30.625 5.68084 29.3192 4.375 27.7083 4.375Z" stroke="white" stroke-width="2" stroke-linecap="round" stroke-linejoin="round"/>
<path d="M12.396 14.5833C13.6041 14.5833 14.5835 13.6039 14.5835 12.3958C14.5835 11.1876 13.6041 10.2083 12.396 10.2083C11.1879 10.2083 10.2085 11.1876 10.2085 12.3958C10.2085 13.6039 11.1879 14.5833 12.396 14.5833Z" stroke="white" stroke-width="2" stroke-linecap="round" stroke-linejoin="round"/>
<path d="M30.6248 21.8749L23.3332 14.5833L7.2915 30.6249" stroke="white" stroke-width="2" stroke-linecap="round" stroke-linejoin="round"/>
</svg>
