<svg width="155" height="39" viewBox="0 0 155 39" fill="none" xmlns="http://www.w3.org/2000/svg">
<circle cx="19.5" cy="19.5" r="19.0568" fill="url(#paint0_linear_2754_12126)" stroke="url(#paint1_linear_2754_12126)" stroke-width="0.886364"/>
<path d="M11.0659 11.221L11.0659 11.221L11.0676 11.2194C12.621 9.73633 14.7338 8.8672 16.8775 8.75776C17.0897 8.75776 17.3025 8.75813 17.5156 8.75849C17.9681 8.75927 18.422 8.76004 18.8751 8.75741C18.8656 9.08024 18.866 9.40192 18.8676 9.72006C18.8678 9.76659 18.868 9.81303 18.8683 9.85938C18.8702 10.2168 18.8722 10.5693 18.8624 10.9213C18.7583 12.6756 18.109 14.3905 17.0171 15.7659L17.0171 15.7658L17.0146 15.7691C15.5931 17.6219 13.416 18.8675 11.105 19.1892L11.105 19.1891L11.0996 19.19C10.6016 19.2705 10.0954 19.2858 9.5765 19.2839C9.40616 19.2832 9.23273 19.2807 9.05773 19.2781C8.79367 19.2741 8.52602 19.2702 8.25993 19.2727C8.26166 19.0163 8.25886 18.7649 8.25609 18.5161C8.24997 17.9663 8.24398 17.4291 8.28733 16.8799C8.48575 14.7416 9.49654 12.6913 11.0659 11.221Z" fill="url(#paint2_linear_2754_12126)" stroke="url(#paint3_linear_2754_12126)" stroke-width="0.5"/>
<path d="M27.6197 10.9565L27.6196 10.9565L27.6224 10.9589C29.2524 12.3576 30.3684 14.3576 30.6546 16.4901C30.7169 16.9833 30.7288 17.4826 30.7308 17.993C30.7312 18.1092 30.7312 18.2262 30.7311 18.3439C30.7309 18.6527 30.7308 18.9659 30.74 19.2788C30.1222 19.2769 29.5051 19.2757 28.8857 19.2796C27.2017 19.2327 25.5427 18.688 24.1279 17.768L24.1075 17.7534C23.4395 17.275 22.7952 16.8136 22.3257 16.1917L22.3194 16.1834L22.3124 16.1756C21.2412 14.9791 20.5128 13.4759 20.2378 11.8922L20.2378 11.8922L20.2372 11.8888C20.0891 11.1013 20.0902 10.3138 20.0914 9.50052C20.0917 9.25548 20.0921 9.00809 20.0884 8.75766C20.4079 8.75954 20.7271 8.75865 21.0452 8.75776L21.0462 8.75775C21.4483 8.75663 21.8488 8.75551 22.2494 8.75992C24.2139 8.90035 26.1474 9.65522 27.6197 10.9565Z" fill="url(#paint4_linear_2754_12126)" stroke="url(#paint5_linear_2754_12126)" stroke-width="0.5"/>
<path d="M8.25649 20.437C8.48562 20.4425 8.71355 20.4397 8.93613 20.437C8.98711 20.4363 9.0378 20.4357 9.08817 20.4352C9.44653 20.4315 9.7922 20.4329 10.1336 20.4708L10.1447 20.472L10.1558 20.4722C13.1328 20.536 16.0265 22.2108 17.5691 24.7569L17.5691 24.7569L17.5705 24.7592C18.4558 26.1861 18.9302 27.8759 18.8687 29.551L18.8686 29.5509L18.8686 29.5591C18.8678 29.7399 18.8682 29.9188 18.8686 30.0966C18.8693 30.3988 18.87 30.6979 18.8651 30.9976C18.6057 30.9934 18.3499 30.994 18.0968 30.9946C17.2964 30.9964 16.5231 30.9982 15.7483 30.8469L15.7483 30.8468L15.7419 30.8458C13.3106 30.4363 11.0744 28.9881 9.72997 26.9244L9.73001 26.9244L9.72734 26.9204C8.71011 25.422 8.20088 23.5885 8.25373 21.7757L8.25384 21.7757V21.7684C8.25384 21.3227 8.25384 20.8796 8.25649 20.437Z" fill="url(#paint6_linear_2754_12126)" stroke="url(#paint7_linear_2754_12126)" stroke-width="0.5"/>
<path d="M27.2273 20.6613L27.2273 20.6613L27.2292 20.6609C28.2786 20.4275 29.3563 20.4321 30.4587 20.4368C30.5487 20.4372 30.6388 20.4376 30.7291 20.4378C30.7256 20.6996 30.7266 20.9583 30.7276 21.2145C30.731 22.0776 30.7343 22.913 30.5655 23.7445L30.5655 23.7445L30.5649 23.7474C30.079 26.2982 28.3877 28.5814 26.1127 29.8344L26.1117 29.835C24.6964 30.623 23.069 31.0117 21.4461 30.9941L21.4423 30.9941C21.2696 30.9948 21.0945 30.9941 20.9179 30.9933C20.6451 30.9921 20.3691 30.991 20.0944 30.9953C20.0937 30.8689 20.0926 30.743 20.0915 30.6175C20.0848 29.846 20.0782 29.091 20.1638 28.3387L20.1639 28.3376C20.4142 26.0473 21.6542 23.9082 23.442 22.4616C24.5499 21.5879 25.8504 20.956 27.2273 20.6613Z" fill="url(#paint8_linear_2754_12126)" stroke="url(#paint9_linear_2754_12126)" stroke-width="0.5"/>
<path d="M49.921 26.6449H55.6092V28.8718H47.1616V12.0492H49.921V26.6449Z" fill="url(#paint10_linear_2754_12126)"/>
<path d="M55.3027 22.1427C55.3027 20.8034 55.577 19.6173 56.1256 18.5846C56.6904 17.5518 57.4489 16.7531 58.4009 16.1883C59.3691 15.6073 60.4342 15.3169 61.596 15.3169C62.6449 15.3169 63.5566 15.5267 64.3312 15.9462C65.1219 16.3496 65.7512 16.8579 66.2192 17.4711V15.5347H69.0028V28.8718H66.2192V26.8869C65.7512 27.5163 65.1138 28.0407 64.307 28.4603C63.5001 28.8798 62.5804 29.0896 61.5476 29.0896C60.4019 29.0896 59.353 28.7991 58.4009 28.2182C57.4489 27.6212 56.6904 26.7982 56.1256 25.7493C55.577 24.6843 55.3027 23.4821 55.3027 22.1427ZM66.2192 22.1911C66.2192 21.2713 66.0255 20.4726 65.6383 19.7948C65.2671 19.1171 64.7749 18.6007 64.1618 18.2457C63.5486 17.8907 62.8869 17.7132 62.1769 17.7132C61.4669 17.7132 60.8053 17.8907 60.1921 18.2457C59.5789 18.5846 59.0787 19.0929 58.6914 19.7706C58.3202 20.4322 58.1347 21.2229 58.1347 22.1427C58.1347 23.0625 58.3202 23.8694 58.6914 24.5632C59.0787 25.2571 59.5789 25.7896 60.1921 26.1608C60.8214 26.5158 61.4831 26.6933 62.1769 26.6933C62.8869 26.6933 63.5486 26.5158 64.1618 26.1608C64.7749 25.8058 65.2671 25.2894 65.6383 24.6117C66.0255 23.9178 66.2192 23.1109 66.2192 22.1911Z" fill="url(#paint11_linear_2754_12126)"/>
<path d="M75.7738 29.0896C74.7249 29.0896 73.7809 28.904 72.9418 28.5329C72.1188 28.1456 71.4653 27.6292 70.9812 26.9838C70.4971 26.3222 70.2389 25.5879 70.2066 24.7811H73.0628C73.1112 25.3459 73.3775 25.8219 73.8616 26.2092C74.3618 26.5803 74.9831 26.7659 75.7254 26.7659C76.4999 26.7659 77.097 26.6207 77.5166 26.3302C77.9522 26.0236 78.1701 25.6363 78.1701 25.1684C78.1701 24.6681 77.928 24.297 77.4439 24.0549C76.976 23.8129 76.2256 23.5466 75.1929 23.2562C74.1924 22.9818 73.3775 22.7156 72.7481 22.4574C72.1188 22.1992 71.5702 21.8039 71.1022 21.2713C70.6504 20.7388 70.4245 20.0369 70.4245 19.1655C70.4245 18.4555 70.6342 17.81 71.0538 17.2291C71.4733 16.632 72.0704 16.1641 72.845 15.8252C73.6357 15.4863 74.5393 15.3169 75.5559 15.3169C77.0728 15.3169 78.2911 15.7042 79.2109 16.4787C80.1468 17.2372 80.6471 18.278 80.7116 19.6012H77.9522C77.9038 19.0041 77.6618 18.5281 77.2261 18.1731C76.7904 17.8181 76.2014 17.6406 75.4591 17.6406C74.733 17.6406 74.1762 17.7777 73.789 18.0521C73.4017 18.3264 73.208 18.6895 73.208 19.1413C73.208 19.4963 73.3371 19.7948 73.5953 20.0369C73.8535 20.2789 74.1682 20.4726 74.5393 20.6178C74.9105 20.7469 75.4591 20.9163 76.1853 21.1261C77.1535 21.3843 77.9442 21.6506 78.5574 21.9249C79.1867 22.1831 79.7273 22.5704 80.1791 23.0867C80.6309 23.6031 80.8649 24.2889 80.8811 25.1442C80.8811 25.9026 80.6713 26.5803 80.2517 27.1774C79.8322 27.7745 79.2351 28.2424 78.4606 28.5813C77.7021 28.9202 76.8065 29.0896 75.7738 29.0896Z" fill="url(#paint12_linear_2754_12126)"/>
<path d="M101.26 12.0492L94.9429 28.8718H91.7478L85.4061 12.0492H88.3591L93.3454 26.0398L98.3558 12.0492H101.26Z" fill="url(#paint13_linear_2754_12126)"/>
<path d="M114.097 21.8765C114.097 22.3767 114.065 22.8285 114 23.232H103.81C103.891 24.297 104.286 25.1522 104.996 25.7977C105.706 26.4432 106.578 26.7659 107.61 26.7659C109.095 26.7659 110.144 26.1446 110.757 24.9021H113.734C113.331 26.1285 112.597 27.1371 111.532 27.9278C110.483 28.7023 109.176 29.0896 107.61 29.0896C106.336 29.0896 105.19 28.8072 104.173 28.2424C103.173 27.6615 102.382 26.8547 101.801 25.8219C101.236 24.773 100.954 23.5628 100.954 22.1911C100.954 20.8195 101.228 19.6173 101.777 18.5846C102.342 17.5357 103.124 16.7289 104.125 16.1641C105.141 15.5993 106.303 15.3169 107.61 15.3169C108.869 15.3169 109.991 15.5912 110.975 16.1399C111.959 16.6885 112.726 17.4631 113.274 18.4636C113.823 19.4479 114.097 20.5855 114.097 21.8765ZM111.217 21.0051C111.201 19.9885 110.838 19.1736 110.128 18.5604C109.418 17.9472 108.538 17.6406 107.489 17.6406C106.537 17.6406 105.722 17.9472 105.045 18.5604C104.367 19.1574 103.963 19.9723 103.834 21.0051H111.217Z" fill="url(#paint14_linear_2754_12126)"/>
<path d="M120.492 15.3169C121.525 15.3169 122.436 15.5267 123.227 15.9462C124.034 16.3496 124.663 16.8579 125.115 17.4711V15.5347H127.899V29.0896C127.899 30.316 127.641 31.4052 127.124 32.3573C126.608 33.3255 125.857 34.0839 124.873 34.6326C123.905 35.1812 122.743 35.4556 121.388 35.4556C119.58 35.4556 118.08 35.0279 116.885 34.1727C115.691 33.3336 115.014 32.1879 114.852 30.7356H117.587C117.797 31.4294 118.241 31.9862 118.919 32.4057C119.613 32.8414 120.436 33.0592 121.388 33.0592C122.501 33.0592 123.397 32.7204 124.074 32.0426C124.768 31.3649 125.115 30.3805 125.115 29.0896V26.8627C124.647 27.4921 124.01 28.0246 123.203 28.4603C122.412 28.8798 121.509 29.0896 120.492 29.0896C119.33 29.0896 118.265 28.7991 117.297 28.2182C116.345 27.6212 115.586 26.7982 115.022 25.7493C114.473 24.6843 114.199 23.4821 114.199 22.1427C114.199 20.8034 114.473 19.6173 115.022 18.5846C115.586 17.5518 116.345 16.7531 117.297 16.1883C118.265 15.6073 119.33 15.3169 120.492 15.3169ZM125.115 22.1911C125.115 21.2713 124.922 20.4726 124.534 19.7948C124.163 19.1171 123.671 18.6007 123.058 18.2457C122.445 17.8907 121.783 17.7132 121.073 17.7132C120.363 17.7132 119.701 17.8907 119.088 18.2457C118.475 18.5846 117.975 19.0929 117.587 19.7706C117.216 20.4322 117.031 21.2229 117.031 22.1427C117.031 23.0625 117.216 23.8694 117.587 24.5632C117.975 25.2571 118.475 25.7896 119.088 26.1608C119.717 26.5158 120.379 26.6933 121.073 26.6933C121.783 26.6933 122.445 26.5158 123.058 26.1608C123.671 25.8058 124.163 25.2894 124.534 24.6117C124.922 23.9178 125.115 23.1109 125.115 22.1911Z" fill="url(#paint15_linear_2754_12126)"/>
<path d="M128.909 22.1427C128.909 20.8034 129.183 19.6173 129.732 18.5846C130.297 17.5518 131.055 16.7531 132.007 16.1883C132.975 15.6073 134.04 15.3169 135.202 15.3169C136.251 15.3169 137.163 15.5267 137.937 15.9462C138.728 16.3496 139.357 16.8579 139.825 17.4711V15.5347H142.609V28.8718H139.825V26.8869C139.357 27.5163 138.72 28.0407 137.913 28.4603C137.106 28.8798 136.187 29.0896 135.154 29.0896C134.008 29.0896 132.959 28.7991 132.007 28.2182C131.055 27.6212 130.297 26.7982 129.732 25.7493C129.183 24.6843 128.909 23.4821 128.909 22.1427ZM139.825 22.1911C139.825 21.2713 139.632 20.4726 139.245 19.7948C138.873 19.1171 138.381 18.6007 137.768 18.2457C137.155 17.8907 136.493 17.7132 135.783 17.7132C135.073 17.7132 134.412 17.8907 133.798 18.2457C133.185 18.5846 132.685 19.0929 132.298 19.7706C131.927 20.4322 131.741 21.2229 131.741 22.1427C131.741 23.0625 131.927 23.8694 132.298 24.5632C132.685 25.2571 133.185 25.7896 133.798 26.1608C134.428 26.5158 135.089 26.6933 135.783 26.6933C136.493 26.6933 137.155 26.5158 137.768 26.1608C138.381 25.8058 138.873 25.2894 139.245 24.6117C139.632 23.9178 139.825 23.1109 139.825 22.1911Z" fill="url(#paint16_linear_2754_12126)"/>
<path d="M149.38 29.0896C148.331 29.0896 147.387 28.904 146.548 28.5329C145.725 28.1456 145.072 27.6292 144.587 26.9838C144.103 26.3222 143.845 25.5879 143.813 24.7811H146.669C146.717 25.3459 146.984 25.8219 147.468 26.2092C147.968 26.5803 148.589 26.7659 149.332 26.7659C150.106 26.7659 150.703 26.6207 151.123 26.3302C151.559 26.0236 151.776 25.6363 151.776 25.1684C151.776 24.6681 151.534 24.297 151.05 24.0549C150.582 23.8129 149.832 23.5466 148.799 23.2562C147.799 22.9818 146.984 22.7156 146.354 22.4574C145.725 22.1992 145.176 21.8039 144.708 21.2713C144.257 20.7388 144.031 20.0369 144.031 19.1655C144.031 18.4555 144.241 17.81 144.66 17.2291C145.08 16.632 145.677 16.1641 146.451 15.8252C147.242 15.4863 148.146 15.3169 149.162 15.3169C150.679 15.3169 151.897 15.7042 152.817 16.4787C153.753 17.2372 154.253 18.278 154.318 19.6012H151.559C151.51 19.0041 151.268 18.5281 150.832 18.1731C150.397 17.8181 149.808 17.6406 149.065 17.6406C148.339 17.6406 147.783 17.7777 147.395 18.0521C147.008 18.3264 146.814 18.6895 146.814 19.1413C146.814 19.4963 146.943 19.7948 147.202 20.0369C147.46 20.2789 147.774 20.4726 148.146 20.6178C148.517 20.7469 149.065 20.9163 149.792 21.1261C150.76 21.3843 151.55 21.6506 152.164 21.9249C152.793 22.1831 153.334 22.5704 153.785 23.0867C154.237 23.6031 154.471 24.2889 154.487 25.1442C154.487 25.9026 154.278 26.5803 153.858 27.1774C153.438 27.7745 152.841 28.2424 152.067 28.5813C151.308 28.9202 150.413 29.0896 149.38 29.0896Z" fill="url(#paint17_linear_2754_12126)"/>
<defs>
<linearGradient id="paint0_linear_2754_12126" x1="3.66667" y1="3.75" x2="29.0833" y2="40.6667" gradientUnits="userSpaceOnUse">
<stop stop-color="#8061F9"/>
<stop offset="1" stop-color="#8061F9" stop-opacity="0.22"/>
</linearGradient>
<linearGradient id="paint1_linear_2754_12126" x1="10.6667" y1="2.25" x2="18.0833" y2="18.3333" gradientUnits="userSpaceOnUse">
<stop stop-color="white" stop-opacity="0.26"/>
<stop offset="1" stop-color="#1E2631" stop-opacity="0"/>
</linearGradient>
<linearGradient id="paint2_linear_2754_12126" x1="9.04863" y1="9.56593" x2="16.2117" y2="20.0683" gradientUnits="userSpaceOnUse">
<stop stop-color="white"/>
<stop offset="1" stop-color="white" stop-opacity="0.22"/>
</linearGradient>
<linearGradient id="paint3_linear_2754_12126" x1="11.0468" y1="9.14176" x2="13.1313" y2="13.7048" gradientUnits="userSpaceOnUse">
<stop stop-color="white" stop-opacity="0.26"/>
<stop offset="1" stop-color="#1E2631" stop-opacity="0"/>
</linearGradient>
<linearGradient id="paint4_linear_2754_12126" x1="20.8829" y1="9.5655" x2="28.034" y2="20.0867" gradientUnits="userSpaceOnUse">
<stop stop-color="white"/>
<stop offset="1" stop-color="white" stop-opacity="0.22"/>
</linearGradient>
<linearGradient id="paint5_linear_2754_12126" x1="22.8872" y1="9.1415" x2="24.9661" y2="13.7081" gradientUnits="userSpaceOnUse">
<stop stop-color="white" stop-opacity="0.26"/>
<stop offset="1" stop-color="#1E2631" stop-opacity="0"/>
</linearGradient>
<linearGradient id="paint6_linear_2754_12126" x1="9.04585" y1="21.242" x2="16.2533" y2="31.7556" gradientUnits="userSpaceOnUse">
<stop stop-color="white"/>
<stop offset="1" stop-color="white" stop-opacity="0.22"/>
</linearGradient>
<linearGradient id="paint7_linear_2754_12126" x1="11.0425" y1="20.816" x2="13.143" y2="25.3907" gradientUnits="userSpaceOnUse">
<stop stop-color="white" stop-opacity="0.26"/>
<stop offset="1" stop-color="#1E2631" stop-opacity="0"/>
</linearGradient>
<linearGradient id="paint8_linear_2754_12126" x1="20.8857" y1="21.2494" x2="28.0788" y2="31.7717" gradientUnits="userSpaceOnUse">
<stop stop-color="white"/>
<stop offset="1" stop-color="white" stop-opacity="0.22"/>
</linearGradient>
<linearGradient id="paint9_linear_2754_12126" x1="22.886" y1="20.8238" x2="24.9806" y2="25.3985" gradientUnits="userSpaceOnUse">
<stop stop-color="white" stop-opacity="0.26"/>
<stop offset="1" stop-color="#1E2631" stop-opacity="0"/>
</linearGradient>
<linearGradient id="paint10_linear_2754_12126" x1="76.0423" y1="9.69868" x2="79.8491" y2="42.7214" gradientUnits="userSpaceOnUse">
<stop stop-color="white"/>
<stop offset="1" stop-color="white" stop-opacity="0.22"/>
</linearGradient>
<linearGradient id="paint11_linear_2754_12126" x1="76.0423" y1="9.69868" x2="79.8491" y2="42.7214" gradientUnits="userSpaceOnUse">
<stop stop-color="white"/>
<stop offset="1" stop-color="white" stop-opacity="0.22"/>
</linearGradient>
<linearGradient id="paint12_linear_2754_12126" x1="76.0423" y1="9.69868" x2="79.8491" y2="42.7214" gradientUnits="userSpaceOnUse">
<stop stop-color="white"/>
<stop offset="1" stop-color="white" stop-opacity="0.22"/>
</linearGradient>
<linearGradient id="paint13_linear_2754_12126" x1="76.0423" y1="9.69868" x2="79.8491" y2="42.7214" gradientUnits="userSpaceOnUse">
<stop stop-color="white"/>
<stop offset="1" stop-color="white" stop-opacity="0.22"/>
</linearGradient>
<linearGradient id="paint14_linear_2754_12126" x1="76.0423" y1="9.69868" x2="79.8491" y2="42.7214" gradientUnits="userSpaceOnUse">
<stop stop-color="white"/>
<stop offset="1" stop-color="white" stop-opacity="0.22"/>
</linearGradient>
<linearGradient id="paint15_linear_2754_12126" x1="76.0423" y1="9.69868" x2="79.8491" y2="42.7214" gradientUnits="userSpaceOnUse">
<stop stop-color="white"/>
<stop offset="1" stop-color="white" stop-opacity="0.22"/>
</linearGradient>
<linearGradient id="paint16_linear_2754_12126" x1="76.0423" y1="9.69868" x2="79.8491" y2="42.7214" gradientUnits="userSpaceOnUse">
<stop stop-color="white"/>
<stop offset="1" stop-color="white" stop-opacity="0.22"/>
</linearGradient>
<linearGradient id="paint17_linear_2754_12126" x1="76.0423" y1="9.69868" x2="79.8491" y2="42.7214" gradientUnits="userSpaceOnUse">
<stop stop-color="white"/>
<stop offset="1" stop-color="white" stop-opacity="0.22"/>
</linearGradient>
</defs>
</svg>
